<svg xmlns="http://www.w3.org/2000/svg" viewBox="0 0 760 340" font-family="Consolas, Menlo, 'Courier New', monospace">
  <defs>
    <linearGradient id="faceTop" x1="0" y1="0" x2="0" y2="1">
      <stop offset="0" stop-color="#3D3D66"/><stop offset="1" stop-color="#2B2B45"/>
    </linearGradient>
    <linearGradient id="faceRight" x1="0" y1="0" x2="1" y2="0">
      <stop offset="0" stop-color="#20203C"/><stop offset="1" stop-color="#12122A"/>
    </linearGradient>
    <linearGradient id="faceLeft" x1="1" y1="0" x2="0" y2="0">
      <stop offset="0" stop-color="#2A2A4A"/><stop offset="1" stop-color="#1C1C36"/>
    </linearGradient>
    <linearGradient id="bezel" x1="0" y1="0" x2="0" y2="1">
      <stop offset="0" stop-color="#2C2C4E"/><stop offset="1" stop-color="#1D1D38"/>
    </linearGradient>
    <radialGradient id="glowTeal" cx="0.5" cy="0.5" r="0.5">
      <stop offset="0" stop-color="#2EC4B6" stop-opacity="0.16"/><stop offset="1" stop-color="#2EC4B6" stop-opacity="0"/>
    </radialGradient>
    <filter id="soft" x="-50%" y="-50%" width="200%" height="200%">
      <feGaussianBlur stdDeviation="8"/>
    </filter>
  </defs>

  <rect width="760" height="340" fill="#1A1A2E"/>
  <circle cx="120" cy="170" r="160" fill="url(#glowTeal)"/>

  <g filter="url(#soft)">
    <ellipse cx="380" cy="312" rx="330" ry="16" fill="#000000" opacity="0.4"/>
  </g>

  <g>
    <polygon points="24,46 736,46 760,30 48,30" fill="url(#faceTop)"/>
    <polygon points="736,46 760,30 760,296 736,296" fill="url(#faceRight)"/>
    <polygon points="24,46 48,30 48,296 24,296" fill="url(#faceLeft)"/>
    <rect x="24" y="46" width="712" height="250" rx="14" fill="url(#bezel)"/>
    <line x1="32" y1="52" x2="728" y2="52" stroke="#4A4A78" stroke-width="1.5" opacity="0.8"/>

    <text x="44" y="80" font-size="13" fill="#FFD23F">Next.js</text>
    <rect x="220" y="68" width="380" height="10" rx="5" fill="#16162B"/>
    <rect x="220" y="68" width="342" height="10" rx="5" fill="#2EC4B6"/>
    <text x="616" y="78" font-size="13" fill="#E8E8E8">90%</text>

    <text x="44" y="104" font-size="13" fill="#FFD23F">React</text>
    <rect x="220" y="92" width="380" height="10" rx="5" fill="#16162B"/>
    <rect x="220" y="92" width="323" height="10" rx="5" fill="#2EC4B6"/>
    <text x="616" y="102" font-size="13" fill="#E8E8E8">85%</text>

    <text x="44" y="128" font-size="13" fill="#FFD23F">TypeScript</text>
    <rect x="220" y="116" width="380" height="10" rx="5" fill="#16162B"/>
    <rect x="220" y="116" width="323" height="10" rx="5" fill="#2EC4B6"/>
    <text x="616" y="126" font-size="13" fill="#E8E8E8">85%</text>

    <text x="44" y="152" font-size="13" fill="#FFD23F">Tailwind CSS</text>
    <rect x="220" y="140" width="380" height="10" rx="5" fill="#16162B"/>
    <rect x="220" y="140" width="380" height="10" rx="5" fill="#FFD23F"/>
    <text x="616" y="150" font-size="13" fill="#E8E8E8">100%</text>

    <text x="44" y="176" font-size="13" fill="#FFD23F">Three.js</text>
    <rect x="220" y="164" width="380" height="10" rx="5" fill="#16162B"/>
    <rect x="220" y="164" width="266" height="10" rx="5" fill="#2EC4B6"/>
    <text x="616" y="174" font-size="13" fill="#E8E8E8">70%</text>

    <text x="44" y="200" font-size="13" fill="#FFD23F">GSAP</text>
    <rect x="220" y="188" width="380" height="10" rx="5" fill="#16162B"/>
    <rect x="220" y="188" width="247" height="10" rx="5" fill="#2EC4B6"/>
    <text x="616" y="198" font-size="13" fill="#E8E8E8">65%</text>

    <text x="44" y="224" font-size="13" fill="#FFD23F">Flutter</text>
    <rect x="220" y="212" width="380" height="10" rx="5" fill="#16162B"/>
    <rect x="220" y="212" width="266" height="10" rx="5" fill="#2EC4B6"/>
    <text x="616" y="222" font-size="13" fill="#E8E8E8">70%</text>

    <text x="44" y="248" font-size="13" fill="#FFD23F">Supabase</text>
    <rect x="220" y="236" width="380" height="10" rx="5" fill="#16162B"/>
    <rect x="220" y="236" width="247" height="10" rx="5" fill="#2EC4B6"/>
    <text x="616" y="246" font-size="13" fill="#E8E8E8">65%</text>

    <text x="44" y="272" font-size="13" fill="#FFD23F">Figma</text>
    <rect x="220" y="260" width="380" height="10" rx="5" fill="#16162B"/>
    <rect x="220" y="260" width="266" height="10" rx="5" fill="#2EC4B6"/>
    <text x="616" y="270" font-size="13" fill="#E8E8E8">70%</text>
  </g>
</svg>